<svg width="396" height="350" viewBox="0 0 396 350" fill="none" xmlns="http://www.w3.org/2000/svg">
<g clip-path="url(#clip0_638_333)">
<path d="M308.423 174.784C308.645 188.603 309.399 203.312 310.876 218.807C312.682 237.632 315.333 255.203 318.451 271.37" stroke="#DEB959" stroke-width="4" stroke-miterlimit="10"/>
<path d="M321.123 216.822C332.06 215.875 342.495 218.583 349.449 222.349C363.408 229.914 367.322 243.914 370.832 256.533C373.491 266.06 378.895 285.455 368.403 306.118C361.127 320.443 349.774 328.373 344.065 332.261C334.776 338.593 325.39 344.995 312.085 344.775C295.061 344.504 283.461 333.592 280.483 330.799C263.456 314.795 264.724 292.957 265.263 283.663C266.379 264.511 275.139 251.273 279.126 245.404C284.183 237.973 293.645 224.056 310.867 218.789C315.568 217.348 319.633 216.937 321.113 216.803L321.123 216.822Z" stroke="#DEB959" stroke-width="4" stroke-miterlimit="10"/>
<path d="M148.52 200.088C140.203 217.938 134.547 231.413 130.854 240.647C127.996 247.782 125.123 254.804 122.44 261.778" stroke="#DEB959" stroke-width="4" stroke-miterlimit="10"/>
<path d="M126.634 270.263L191.971 273.463" stroke="#DEB959" stroke-width="4" stroke-miterlimit="10"/>
<path d="M168.246 192.765C189.628 274.343 197.478 294.178 200.196 293.748C201.85 293.481 200.708 285.85 207.288 280.841C211.262 277.806 217.575 276.107 223.131 277.477C228.739 278.85 230.696 282.635 232.136 282.058C236.006 280.501 225.273 252.725 225.273 252.725C201.1 203.817 196.792 182.073 203.111 177.904C205.401 176.393 207.032 178.735 221.475 179.63C233.437 180.376 236.972 179.056 238.921 181.311C241.878 184.732 235.744 190.035 230.426 204.09C225.071 218.237 223.442 233.57 223.442 233.57C226.466 233.296 230.952 233.037 236.37 233.378M236.37 233.378C244.936 233.91 251.958 235.662 251.93 235.801C251.915 235.885 249.153 235.515 236.37 233.378Z" stroke="#DEB959" stroke-width="4" stroke-miterlimit="10"/>
<path d="M277.698 161.677C260.777 211.162 252.187 235.88 251.93 235.802C251.734 235.745 256.089 222.15 264.996 195.017" stroke="#DEB959" stroke-width="4" stroke-miterlimit="10"/>
<path d="M250.26 157.02C259.413 158.576 268.556 160.122 277.709 161.678" stroke="#DEB959" stroke-width="4" stroke-miterlimit="10"/>
<path d="M207.34 308.779C247.76 302.348 257.189 298.708 256.972 296.529C256.755 294.331 246.439 291.348 237.906 290.573C232.141 290.047 228.724 290.668 225.97 288.439C222.692 285.791 222.676 281.003 223.142 277.459" stroke="#DEB959" stroke-width="4" stroke-miterlimit="10"/>
<path d="M207.288 280.841C207.302 290.153 207.316 299.475 207.33 308.788" stroke="#DEB959" stroke-width="4" stroke-miterlimit="10"/>
<path d="M218.812 311.66C220.828 310.623 224.104 309.234 228.418 308.657C231.732 308.219 234.566 308.395 236.591 308.673" stroke="#DEB959" stroke-width="4" stroke-miterlimit="10"/>
<path d="M264.996 195.016C279.723 195.447 294.45 195.877 309.188 196.308" stroke="#DEB959" stroke-width="4" stroke-miterlimit="10"/>
<path d="M253.922 244.629C272.344 228.522 290.766 212.416 309.188 196.309" stroke="#DEB959" stroke-width="4" stroke-miterlimit="10"/>
<path d="M228.191 233.277C226.621 236.307 225.061 239.338 223.491 242.368" stroke="#DEB959" stroke-width="4" stroke-miterlimit="10"/>
<path d="M226.603 256.302C241.053 258.333 255.503 260.365 269.942 262.395" stroke="#DEB959" stroke-width="4" stroke-miterlimit="10"/>
<path d="M270.054 257.773C268.419 254.886 265.892 251.627 261.869 249.262C255.702 245.646 250.119 246.527 247.564 242.769C245.936 240.38 246.416 237.419 247.164 235.146" stroke="#DEB959" stroke-width="4" stroke-miterlimit="10"/>
<path d="M143.03 212.087C155.463 217.315 160.858 227.304 164.94 234.863C172.127 248.179 172.39 260.104 172.458 265.749C172.514 270.999 172.508 284.788 164.345 299.726C160.188 307.333 146.056 333.178 118.751 334.966C94.7275 336.54 77.6818 318.367 75.391 315.842C53.9185 292.233 65.1345 261.064 67.6253 254.812C74.2998 238.045 86.7009 228.346 94.1572 222.506C101.831 216.499 109.745 210.475 121.902 209.184C124.623 208.895 133.486 208.062 143.041 212.078L143.03 212.087Z" stroke="#DEB959" stroke-width="4" stroke-miterlimit="10"/>
<path d="M123.218 104.649C100.188 117.536 79.8108 125.117 64.6475 129.753C37.9177 137.934 26.0062 137.426 16.9408 148.162C8.14224 158.573 9.35664 171.549 11.7646 197.5C14.4155 225.96 15.7352 240.199 25.9893 245.31C37.0392 250.817 49.7172 242.079 94.1463 222.515C112.05 214.634 130.443 207.65 148.519 200.097C222.146 169.337 226.12 169.513 250.249 157.028C263.439 150.202 277.449 142.449 305.479 126.935C363.655 94.7336 328.111 112.79 353.579 98.774C379.725 84.3878 389.656 80.5093 391.024 71.3583C392.204 63.4934 386.288 56.8674 374.676 43.8514C362.182 29.8535 355.315 22.1577 344.044 18.827C333.349 15.6653 322.934 17.6896 286.001 33.1526C266.516 41.3035 256.773 45.3883 236.063 55.5068C217.345 64.6434 189.922 77.1554 154.358 90.2916" stroke="#DEB959" stroke-width="4" stroke-miterlimit="10"/>
<path d="M193.934 74.6394C182.052 74.1606 171.983 74.4372 164.332 74.8696C156.912 75.2853 163.206 74.3827 133.688 79.0946C125.798 80.3508 121.798 81.1405 119.989 84.1496C118.35 86.8761 119.993 90.0355 120.93 93.733C123.692 104.569 131.497 111.25 136.151 115.459C162.463 139.276 163.398 152.408 174.023 151.642C182.456 151.041 190.46 142.14 189.69 135.241C189.013 129.209 181.775 125.907 175.484 121.825C165.951 115.651 154.41 105.013 145.411 85.3856" stroke="#DEB959" stroke-width="4" stroke-miterlimit="10"/>
<path d="M267.054 148.098C286.36 159.82 293.482 164.43 294.326 165.335C294.386 165.404 294.643 165.698 295.085 165.842C296.434 166.265 298.125 164.817 298.78 164.249C300.787 162.526 307.092 155.654 304.309 151.03C302.965 148.806 300.607 148.925 296.017 146.813C290.651 144.335 287 140.993 284.69 138.43" stroke="#DEB959" stroke-width="4" stroke-miterlimit="10"/>
<path d="M304.308 151.031C312.841 148.821 320.772 151.64 323.162 156.404C325.114 160.311 322.971 164.796 322.727 165.282C322.427 165.877 320.382 169.851 316.056 171.31C310.615 173.146 303.2 170.455 298.78 164.24" stroke="#DEB959" stroke-width="4" stroke-miterlimit="10"/>
<path d="M186.46 143.99C186.781 143.828 191.716 141.46 196.376 143.838C200.037 145.707 200.882 149.156 201.039 149.792C202.233 154.648 199.056 160.828 193.358 162.135C187.333 163.511 179.877 159.11 178.997 151.895" stroke="#DEB959" stroke-width="4" stroke-miterlimit="10"/>
<path d="M200.93 190.207C212.675 190.707 224.43 191.208 236.174 191.708" stroke="#DEB959" stroke-width="4" stroke-miterlimit="10"/>
<path d="M214.498 67.7238C208.531 47.8502 209.879 42.5281 212.295 41.4261C215.865 39.8081 222.159 47.2318 228.111 45.0076C232.87 43.2319 232.916 36.973 236.392 36.8335C239.932 36.6878 241.551 43.1127 244.459 42.8609C247.975 42.5544 246.769 33.0519 254.371 27.2195C256.934 25.2518 261.337 23.0644 263.644 24.4071C266.53 26.0879 264.834 32.5382 264.384 34.2528C263.294 38.3672 261.1 41.3387 259.573 43.0662" stroke="#DEB959" stroke-width="4" stroke-miterlimit="10"/>
<path d="M119.264 276.257C123.163 276.448 126.463 273.764 126.634 270.263C126.806 266.761 123.784 263.768 119.885 263.577C115.987 263.386 112.687 266.07 112.516 269.571C112.344 273.073 115.366 276.066 119.264 276.257Z" fill="#DEB959" stroke="#DEB959" stroke-width="4" stroke-miterlimit="10"/>
<path d="M317.883 282.945C321.442 283.119 324.454 280.67 324.611 277.473C324.767 274.277 322.009 271.545 318.45 271.37C314.891 271.196 311.88 273.646 311.723 276.842C311.566 280.038 314.325 282.771 317.883 282.945Z" fill="#DEB959" stroke="#DEB959" stroke-width="4" stroke-miterlimit="10"/>
<path d="M306.364 290.219C305.773 294.179 304.065 297.672 301.996 301.091C299.844 304.468 297.423 307.597 293.976 310.104C294.557 306.143 296.265 302.641 298.345 299.232C300.506 295.865 302.927 292.735 306.364 290.219Z" fill="#DEB959"/>
<path d="M315.071 297.048C312.812 303.264 309.44 308.947 305.75 314.502C301.978 320.015 297.945 325.327 292.856 329.988C295.105 323.761 298.488 318.088 302.177 312.534C305.959 307.021 309.992 301.718 315.071 297.048Z" fill="#DEB959"/>
<path d="M351.012 233.972C348.753 240.188 345.381 245.871 341.691 251.425C337.919 256.939 333.886 262.251 328.797 266.911C331.046 260.685 334.418 255.012 338.118 249.458C341.9 243.945 345.933 238.642 351.012 233.972Z" fill="#DEB959"/>
<path d="M111.79 284.161C109.531 290.377 106.159 296.06 102.469 301.615C98.6975 307.128 94.664 312.441 89.5755 317.101C91.8246 310.875 95.2068 305.202 98.8967 299.647C102.679 294.134 106.712 288.831 111.79 284.161Z" fill="#DEB959"/>
<path d="M127.428 281.351C125.169 287.567 121.797 293.25 118.107 298.804C114.336 304.317 110.302 309.63 105.214 314.29C107.463 308.064 110.845 302.391 114.535 296.836C118.317 291.324 122.35 286.021 127.428 281.351Z" fill="#DEB959"/>
<path d="M307.384 170.828C310.044 170.959 312.296 169.127 312.413 166.738C312.53 164.348 310.468 162.306 307.808 162.175C305.147 162.045 302.895 163.876 302.778 166.266C302.661 168.655 304.723 170.698 307.384 170.828Z" fill="#DEB959" stroke="#DEB959" stroke-width="4" stroke-miterlimit="10"/>
<path d="M25.9248 183.681C40.1446 176.756 53.425 168.31 65.3999 158.562C66.8913 157.349 64.778 155.255 63.2866 156.468C51.4967 166.066 38.464 174.364 24.4587 181.178C22.7023 182.04 24.1476 184.542 25.9144 183.681L25.9248 183.681Z" fill="#DEB959"/>
<path d="M46.8597 173.668C50.3228 187.467 55.0953 200.993 61.0696 214.099C61.8339 215.779 64.6042 214.488 63.8395 212.817C57.9694 199.932 53.3214 186.638 49.9094 173.075C49.4629 171.308 46.4132 171.9 46.8592 173.677L46.8597 173.668Z" fill="#DEB959"/>
<path d="M76.3904 150.774C73.9909 160.072 72.0186 169.822 74.1117 179.368C75.7699 186.912 80.0799 194.304 87.1957 198.83C90.9359 201.21 95.9528 202.92 100.062 200.333C103.535 198.147 105.16 193.984 106.149 190.428C108.408 182.296 107.154 173.336 102.369 166.033C97.5844 158.731 89.0736 152.813 79.6134 150.697C77.6592 150.264 76.6925 152.929 78.6467 153.363C86.1422 155.044 92.8153 159.004 97.5199 164.529C102.59 170.484 104.766 178.129 103.944 185.513C103.552 189.033 102.53 192.832 100.428 195.845C99.4497 197.252 98.0798 198.546 96.1651 198.8C94.0083 199.088 91.8267 198.174 90.0469 197.167C83.4562 193.446 79.3614 186.994 77.5554 180.335C74.9789 170.84 76.9681 160.959 79.3676 151.661C79.8193 149.909 76.843 149.003 76.3909 150.765L76.3904 150.774Z" fill="#DEB959"/>
<path d="M83.3626 145.21C83.7302 140.694 85.508 136.407 88.4456 132.768C89.6252 131.305 86.983 129.768 85.8143 131.222C82.5541 135.258 80.6354 140.073 80.234 145.066C80.0829 146.871 83.2111 147.024 83.3622 145.22L83.3626 145.21Z" fill="#DEB959"/>
<path d="M95.9974 142.046C108.798 155.337 119.268 170.334 127.039 186.447C127.846 188.11 130.616 186.829 129.809 185.165C123.68 172.455 115.866 160.423 106.573 149.351C103.936 146.209 101.18 143.155 98.3048 140.179C96.9717 138.799 94.6744 140.677 95.9969 142.056L95.9974 142.046Z" fill="#DEB959"/>
<path d="M120.746 166.839C122.824 155.367 125.71 144.037 129.328 132.894C129.894 131.156 126.917 130.26 126.352 131.997C122.648 143.38 119.739 154.962 117.618 166.676C117.291 168.453 120.43 168.598 120.747 166.83L120.746 166.839Z" fill="#DEB959"/>
<path d="M119.694 164.206C134.369 165.263 149.045 166.32 163.72 167.377C165.73 167.522 165.868 164.713 163.858 164.567C149.182 163.51 134.507 162.454 119.832 161.397C117.822 161.251 117.684 164.061 119.694 164.206Z" fill="#DEB959"/>
<path d="M185.718 111.982C198.476 111.433 210.421 105.926 218.291 96.9625C219.531 95.5495 216.889 94.012 215.66 95.4162C208.531 103.534 197.409 108.678 185.855 109.182C183.865 109.272 183.706 112.08 185.718 111.991L185.718 111.982Z" fill="#DEB959"/>
<path d="M201.59 108.873C206.874 119.439 212.669 129.795 218.957 139.913C219.945 141.501 222.715 140.219 221.727 138.631C215.439 128.514 209.644 118.157 204.36 107.592C203.532 105.937 200.762 107.218 201.59 108.873Z" fill="#DEB959"/>
<path d="M222.112 93.6573C221.17 99.8629 222.206 106.231 224.912 112.024C226.245 114.887 228.016 117.574 230.143 120.025C232.27 122.476 234.715 124.858 237.907 126.037C244.211 128.364 249.85 123.356 250.8 118.033C251.375 114.832 250.283 111.521 248.837 108.606C247.391 105.691 245.412 102.562 243.43 99.7143C239.309 93.7957 232.509 87.9524 224.096 89.643C222.132 90.0349 222.823 92.791 224.797 92.3902C231.036 91.1376 236.411 95.3434 239.711 99.6729C241.508 102.033 243.046 104.577 244.532 107.09C246.019 109.604 247.53 112.456 247.793 115.407C248.154 119.574 244.516 125.347 239.06 123.428C236.388 122.49 234.313 120.257 232.58 118.285C230.739 116.186 229.222 113.859 228.015 111.416C225.275 105.884 224.332 99.755 225.24 93.8012C225.516 92.0124 222.387 91.8685 222.112 93.6479L222.112 93.6573Z" fill="#DEB959"/>
<path d="M239.952 85.7829C242.142 92.4987 245.733 98.7855 250.574 104.298C254.643 108.938 261.648 116.143 269.096 113.898C276.543 111.653 276.44 102.871 273.482 97.5352C271.821 94.5439 269.378 91.9179 266.799 89.5199C264.22 87.1219 261.226 84.4314 257.887 82.6157C254.547 80.8 250.539 79.8339 246.711 80.9512C243.265 81.9557 240.571 84.2456 240.054 87.5527C239.778 89.3415 242.907 89.4853 243.182 87.7059C243.52 85.4977 245.796 84.051 248.059 83.5235C250.977 82.8498 253.843 83.6567 256.367 85.0569C259.185 86.6218 261.59 88.7484 263.9 90.8611C266.092 92.8552 268.215 94.968 269.821 97.384C271.427 99.8001 272.445 102.281 272.344 104.989C272.257 107.407 271.044 110.182 268.384 111.141C265.394 112.215 262.162 110.564 259.827 108.947C257.31 107.2 255.131 104.953 253.149 102.725C248.522 97.5422 245.074 91.544 243.002 85.1907C242.439 83.4547 239.379 84.037 239.952 85.7923L239.952 85.7829Z" fill="#DEB959"/>
<path d="M261.478 77.1598C266.581 85.0039 271.694 92.8579 276.797 100.702C277.973 102.506 279.024 104.538 280.447 106.203C281.732 107.712 283.692 108.024 285.429 106.926C287.359 105.706 289.049 104.071 290.791 102.655C292.685 101.114 294.579 99.5829 296.483 98.0429C297.975 96.8299 295.861 94.7364 294.37 95.9493C291.083 98.6138 287.806 101.288 284.509 103.943C284.324 104.093 283.73 104.684 283.456 104.736C283.066 104.801 283.001 104.629 282.775 104.346C282.104 103.525 281.589 102.523 281.016 101.641L277.74 96.6084C273.249 89.7049 268.748 82.7915 264.258 75.8879C263.237 74.3266 260.457 75.5985 261.488 77.1697L261.478 77.1598Z" fill="#DEB959"/>
<path d="M298.973 61.3019C307.995 70.6615 316.3 80.5587 323.82 90.9242C324.916 92.4329 327.696 91.1704 326.59 89.6425C318.923 79.0726 310.471 68.9712 301.281 59.4249C299.948 58.0455 297.65 59.923 298.973 61.3019Z" fill="#DEB959"/>
<path d="M315.34 77.3388C316.055 70.418 316.78 63.5072 317.496 56.5864C317.678 54.7836 314.549 54.6398 314.367 56.4332C313.652 63.3539 312.927 70.2648 312.212 77.1855C312.029 78.9883 315.158 79.1322 315.34 77.3388Z" fill="#DEB959"/>
<path d="M315.728 75.818C324.534 75.489 333.349 76.2588 341.92 78.1899C343.873 78.633 344.841 75.9581 342.886 75.5244C334.037 73.5327 324.954 72.6747 315.865 73.018C313.875 73.0895 313.717 75.9072 315.727 75.8274L315.728 75.818Z" fill="#DEB959"/>
<path d="M329.623 49.6985C335.96 56.8896 342.307 64.0812 348.644 71.2817C349.901 72.7138 352.21 70.8274 350.952 69.4047C344.615 62.2136 338.267 55.022 331.931 47.8215C330.673 46.3894 328.365 48.2757 329.623 49.6985Z" fill="#DEB959"/>
<path d="M323.327 43.5894C325.339 43.6879 325.477 40.8786 323.464 40.78C321.452 40.6814 321.314 43.4908 323.327 43.5894Z" fill="#DEB959"/>
<path d="M340.361 46.6296C346.159 44.3416 351.593 41.3786 356.554 37.8387C357.215 37.3641 357.199 36.3965 356.651 35.8534C356.053 35.2608 355.101 35.2706 354.441 35.7451C349.696 39.1361 344.469 41.9402 338.906 44.1271C337.062 44.8534 338.528 47.3565 340.361 46.6296Z" fill="#DEB959"/>
<path d="M348.126 44.2972C354.708 52.4671 361.723 60.3391 369.15 67.9028C370.494 69.2734 372.802 67.3871 371.457 66.0258C364.03 58.4715 357.016 50.5901 350.434 42.4202C349.252 40.9448 346.943 42.8406 348.126 44.2972Z" fill="#DEB959"/>
<path d="M143.189 144.19C152.205 150.029 160.192 157.047 166.942 164.981C168.178 166.431 170.476 164.544 169.25 163.104C162.342 154.975 154.112 147.813 144.882 141.841C143.231 140.775 141.547 143.133 143.189 144.19Z" fill="#DEB959"/>
<path d="M137.298 130.017C139.311 130.116 139.448 127.306 137.436 127.208C135.423 127.109 135.286 129.919 137.298 130.017Z" fill="#DEB959"/>
</g>
<defs>
<clipPath id="clip0_638_333">
<rect width="380.004" height="331.799" fill="white" transform="translate(16.234) rotate(2.80443)"/>
</clipPath>
</defs>
</svg>
