<svg width="486" height="1457" viewBox="0 0 486 1457" fill="none" xmlns="http://www.w3.org/2000/svg">
<path d="M22.7703 0.700038C33.7037 4.02004 45.5473 10.3291 54.2103 15.4849C56.9483 17.1181 55.0502 17.2214 56.8954 18.3828C60.5439 20.681 64.1973 22.0823 67.6469 24.4367C68.8095 25.2336 66.5552 25.7367 67.7936 26.5442C74.4184 30.8764 81.0658 34.1333 87.8451 38.3462C96.5669 43.7721 105.199 49.1959 113.845 54.6524C139.608 70.6638 161.123 92.968 177.581 117.968C182.191 124.843 186.676 133.018 191.135 140.748C194.112 145.861 196.785 151.062 199.247 155.941C199.998 157.432 200.8 155.986 201.031 156.231C204.579 160.189 201.445 159.709 202.325 162.844C205.74 175.304 208.963 188.693 211.941 200.151C213.196 205.014 214.748 199.565 214.323 204.81C214.296 205.176 212.66 204.204 212.789 205.589C213.084 208.706 214.444 214.444 214.77 216.826C215.379 221.282 215.531 222.1 216.228 226.07C216.251 226.202 216.274 226.337 216.299 226.477C217.334 232.497 217.68 239.678 218.791 246.07C219.031 247.429 220.242 245.433 220.753 247.601C221.27 249.765 221.782 255.599 221.629 257.597C221.482 259.587 220.27 258.862 220.045 259.232C218.145 262.276 221.727 268.718 221.858 269.581C224.308 285.29 223.011 298.966 222.803 313.824C222.713 319.725 222.646 325.854 222.402 331.905C222.173 337.532 221.897 342.744 221.42 347.919C220.226 360.6 218.249 371.256 216.542 383.543C216.359 384.827 218.267 383.582 218.045 385.149C215.614 402.079 211.889 418.927 205.282 434.934C204.599 436.577 203.925 433.94 203.161 435.535C198.722 445.29 188.97 458.643 191.343 467.215C187.563 473.38 182.879 480.124 179.71 484.451C179.705 484.459 179.699 484.466 179.693 484.474C177.469 487.662 177.402 483.562 176.206 488.359C175.932 489.443 177.795 488.639 177.275 490.242C175.065 497.013 171.572 503.859 169.455 510.504C169.015 511.884 170.35 512.013 170.397 512.476C170.741 516.307 165.67 520.152 164.957 521.203C163.717 523.02 162.645 524.774 161.664 526.539C158.567 532.082 156.644 537.273 153.906 543.275C153.073 545.1 155.603 543.653 154.865 545.416C150.972 554.653 146.593 563.985 141.866 572.598C140.812 574.51 140.306 572.087 139.736 572.967C137.233 576.862 139.324 578.923 136.969 582.685C136.477 583.478 135.554 582.489 135.36 582.586C132.309 584.109 134.14 587.461 133.921 588.108C131.212 596.331 126.045 600.031 123.032 607.791C122.673 608.724 125.038 607.326 123.943 609.906C117.587 624.902 110.255 640.445 102.75 654.976C101.676 657.057 100.634 659.072 99.5927 661.092C98.2995 663.614 98.0042 661.292 97.8017 661.393C94.5393 663.207 96.6478 666.126 96.4028 667.021C94.4026 674.029 89.6138 679.546 91.4872 685.38C83.9954 704.155 81.6427 724.008 79.6078 744.351C78.5323 754.419 78.1349 764.58 77.9469 774.879C77.9438 775.266 76.3791 774.709 76.3805 775.488C76.4947 784.883 78.6871 782.863 82.404 788.437C83.3373 789.818 80.7499 795.007 80.5948 795.492C79.9632 797.165 77.4617 796.032 77.3803 796.57C76.8193 801.052 83.9258 798.891 85.1664 804.357C85.1944 804.532 83.6962 804.117 83.6711 804.61C83.5882 806.14 84.4638 807.453 84.3564 808.959C84.1186 812.434 80.9284 814.553 84.3583 818.921C84.8078 819.468 88.5438 817.357 89.8173 822.245C90.2948 824.201 93.1646 832.665 93.7769 835.119C94.3533 837.558 92.5039 836.402 92.5078 836.59C92.5979 837.65 92.6441 838.504 92.6433 839.184C92.6709 843.105 91.361 842.063 90.2355 845.577C88.9156 849.704 94.526 846.667 95.6652 847.746C96.8044 848.831 97.1235 854.066 97.0607 855.405C97.0001 856.75 95.6625 855.586 95.7632 856.72C96.4538 864.221 99.7977 858.666 101.555 860.58C105.712 865.095 102.817 870.835 104.16 875.87C104.521 877.224 105.132 875.786 105.654 876.927C107.702 881.442 107.353 884.748 110.54 889.567C110.919 890.147 113.194 891.999 114.105 894.308C114.383 895.001 114.528 895.831 114.317 896.739C114.217 897.21 112.671 896.728 113.313 898.604C114.286 901.473 117.141 906.282 119.454 908.751C121.13 910.544 120.995 907.138 122.375 909.983C122.98 911.22 120.559 909.896 121.79 912.18C123.023 914.498 127.259 919.609 128.948 921.512C130.607 923.402 130.826 921.409 131.031 921.499C132.274 922.102 135.958 925.258 136.235 925.565C150.645 941.539 162.901 957.515 178.334 971.983C179.537 973.109 179.857 971.248 180.051 971.409C184.506 974.983 178.47 974.703 180.283 978.468C182.094 975.865 183.325 977.907 186.41 980.513C187.877 981.745 187.997 980.157 188.208 980.192C191.506 980.899 191.284 984.025 191.283 984.708C191.347 987.292 194.298 987.259 194.38 989.023C194.453 990.47 192.184 990.132 192.93 991.492C193.086 991.78 193.38 992.144 193.864 992.617C195.411 992.575 195.449 988.514 197.836 990.204C206.736 996.613 220.445 1011.72 227.165 1017.45C233.793 1023.2 236.166 1024.78 239.939 1028.26C246.799 1034.52 245.448 1030.72 250.601 1033.41C255.779 1036.08 250.352 1038.65 250.324 1040.07C250.292 1041.48 251.707 1041.07 252.145 1042.18C252.581 1043.29 250.354 1042.6 252.127 1044.22C253.895 1045.84 260.362 1048.07 261.743 1047.59C264.678 1046.59 263.885 1042.73 268.407 1047.17C268.668 1047.42 266.895 1047.87 267.934 1048.8C273.826 1054.01 280.249 1058.89 286.525 1063.82C289.048 1065.8 291.559 1067.79 294.003 1069.81C295.172 1070.78 293.174 1071.3 293.845 1071.87C300.849 1077.89 299.633 1073.86 305.42 1074.27C302.308 1076.85 303.27 1080.39 309.048 1084.29C312.519 1086.63 312.867 1084.82 315.779 1085.33C316.656 1085.48 318.474 1088.09 319.364 1087.72C322.281 1086.53 321.566 1082.56 326.903 1087.48C327.135 1087.7 325.514 1088.34 326.372 1089.01C331.925 1093.35 334.132 1091.53 340.662 1095.42C345.777 1098.46 353.756 1105.66 359.273 1109.61C356.771 1113.19 362.648 1115.86 366.494 1114.8C370.105 1117.33 374.166 1119.84 377.467 1122.58C378.604 1123.52 377.095 1124.03 377.171 1124.24C378.317 1127.61 381.551 1126.28 382.395 1126.72C383.198 1127.16 383.963 1127.6 384.695 1128.05C392.61 1132.92 397.775 1139.01 405.944 1143.48C406.263 1143.66 408.697 1141.74 409.243 1145.21C409.261 1145.43 405.906 1144.25 409.298 1147.48C412.748 1150.74 417.798 1158.05 423.107 1162.03C424.4 1162.97 428.911 1164.46 429.424 1168.19C429.488 1168.69 428.517 1168.87 428.522 1169.65C428.531 1172.14 431.625 1171.12 430.957 1174.56C430.285 1177.99 431.483 1182.88 436.577 1187.19C436.734 1187.33 439.608 1187.23 440.707 1188.95C441.768 1190.61 442.955 1192.77 444.142 1194.85C444.917 1196.2 445.671 1197.55 446.375 1198.7C447.221 1200.09 447.978 1198.42 448.148 1198.65C454.485 1207.78 456.607 1215.55 460.556 1226.58C461.277 1228.6 465.466 1233.62 465.372 1238.1C465.254 1243.01 456.76 1241.12 461.825 1250.29C463.831 1253.97 474.469 1256.16 472.086 1264.89C474.797 1271.62 476.476 1278.39 478.135 1285.16C479.827 1292.1 480.798 1299.09 482.155 1306.46C482.277 1307.1 485.01 1309.06 485.012 1310.68C485.012 1313.04 483.777 1314.31 483.671 1315.98C483.172 1322.9 483.566 1329.35 482.315 1335.99C481.828 1338.49 480.744 1337.39 480.109 1340.35C479.457 1343.28 480.665 1345.63 478.892 1349.45C477.54 1352.31 473.446 1354.37 471.895 1358.1C475.066 1359.22 474.212 1361.89 473.427 1366.94C473.278 1367.9 474.721 1367.31 474.706 1367.79C474.676 1369.73 473.164 1371.08 473.183 1372.94C473.18 1373.4 474.251 1373.82 474.309 1374.22C474.853 1377.66 470.63 1381.34 469.888 1381.97C467.107 1384.32 467.91 1386.29 466.326 1388.35C464.756 1390.37 465.393 1386.66 463.915 1389.14C460.844 1394.42 457.839 1401.38 455.934 1407.49C455.804 1407.93 455.774 1408.24 455.801 1408.46L455.819 1408.39C455.898 1409.39 457.193 1408.69 457.138 1408.97C456.043 1413.94 452.362 1417.87 454.026 1421.68C452.435 1421.67 451.415 1421.76 450.773 1421.96C447.942 1422.84 452.668 1425.86 448.996 1430.64C448.634 1431.1 444.957 1430.14 445.382 1427.95C445.77 1425.95 447.854 1423.7 448.548 1420.95C448.612 1420.7 448.662 1420.45 448.699 1420.2C448.822 1419.46 447.256 1414.36 447.249 1413.82C447.316 1409.43 452.613 1410.97 453.009 1410.82C454.381 1410.41 455.038 1409.4 455.27 1408.23L455.245 1408.32C455.657 1405.85 454.972 1403 455.138 1402.06C456.249 1395.82 459.055 1391.43 460.175 1386.49C460.938 1383.21 457.649 1381.59 458.715 1379.26C462.145 1371.66 468.009 1370.57 466.337 1361.68C465.949 1359.79 461.681 1360.17 466.419 1355.44C466.719 1355.16 470.731 1351.68 469.603 1348.72C469.46 1348.36 468.33 1348.08 468.338 1347.65C468.411 1344.78 469.738 1343.19 469.926 1340.12C470.106 1337.07 470.083 1333.41 470.928 1330.11C471.443 1328.11 473.877 1325.72 474.494 1324.76C476.285 1322.06 473.932 1318.9 475.83 1317.24C477.731 1315.49 480.505 1319.16 481.775 1314.33C478.749 1314.13 475.644 1313.73 472.599 1313.48C472.665 1304.66 472.363 1295.94 470.025 1287.47C469.742 1286.45 469.449 1285.43 469.145 1284.42C468.758 1283.15 467.571 1284.9 467.116 1283.55C465.203 1277.87 464.821 1272.53 462.535 1266.75C460.758 1262.28 457.509 1257.84 455.497 1253.29C457.805 1249.3 454.238 1242.71 452.616 1237.64C452.048 1235.86 452.957 1235.65 452.75 1234.3C451.933 1229.23 449.957 1232.55 449.003 1231.47C444.881 1226.92 451.081 1223.72 447.995 1217.47C447.835 1217.11 442.58 1214.75 442.1 1214.35C439.034 1211.66 442.962 1213.2 442.097 1210.95C440.495 1206.89 439.728 1203.73 436.101 1200.14C436.101 1200.14 436.101 1200.14 436.101 1200.14C434.961 1198.99 430.976 1197.11 430.779 1193.63C430.752 1193.17 431.886 1192.67 431.767 1192.37C429.512 1186.91 426.253 1188.99 423.341 1187.13C420.44 1185.28 419.602 1179.82 419.557 1178.55C419.48 1175.26 421.474 1179.62 421.701 1179.62C424.561 1179.57 422.039 1176.9 420.434 1174.61C423.123 1171.94 420.401 1169.01 418.747 1172.25C418.566 1172.6 420.223 1174.07 420.434 1174.61C416.016 1175 413.077 1172.2 412.445 1166.42C412.111 1163.71 414.987 1163.91 409.73 1159.51C407.333 1157.56 406.351 1160.23 403.944 1158.89C398.472 1155.85 394.027 1148.86 388.724 1145.24C386.814 1143.93 387.728 1146.43 386.391 1145.58C383.044 1143.48 380.753 1140.65 377.289 1138.68C377.101 1138.57 376.908 1138.47 376.711 1138.36C376.365 1138.19 376.295 1139.94 375.194 1139.2C366.775 1133.59 359.88 1127.9 350.928 1121.98C346.616 1119.13 338.39 1114.73 333.977 1111.64C326.315 1106.3 317.88 1098.17 310.934 1094.18C306.406 1091.56 306.531 1093.43 304.109 1093.02C299.419 1092.25 295.034 1085.03 294.493 1084C294.477 1083.97 298.398 1086.21 296.838 1084.23C296.576 1082.14 294.539 1084.03 294.493 1084C294.128 1083.34 286.897 1077.97 285.269 1077.17C284.382 1076.75 284.027 1078.21 283.58 1077.97C281.903 1077.05 280.232 1076.09 278.584 1075.12C269.834 1069.97 261.439 1064.2 253.443 1057.66C253.287 1057.51 254.477 1056.43 254.097 1056.1C248.803 1051.35 244.021 1050.17 238.649 1047.53C233.282 1044.88 229.813 1041.68 228.756 1037.41C225.059 1034.93 220.847 1029.99 218.493 1027.1C216.133 1024.2 213.784 1026.22 213.493 1026.05C204.514 1021 201.219 1015.79 193.698 1008.41C191.531 1006.28 187.924 1003.01 184.545 999.912C182.378 997.929 180.361 996.126 178.776 994.729C175.613 991.948 174.339 989.655 171.302 987.254C170.894 986.93 170.296 988.262 170.147 988.187C165.948 986.275 169.77 985.394 169.564 984.343C168.837 980.537 168.235 978.296 163.656 975.098C162.575 974.333 156.594 975.09 154.736 973.589C152.362 971.669 154.424 971.32 151.885 969.309C151.672 969.138 150.944 969.913 149.622 968.483C143.442 961.817 137.041 954.222 130.473 947.238C129.589 946.291 129.47 948.65 128.178 947.305C122.011 940.865 115.564 933.493 110.542 925.939C109.307 924.065 111.104 924.432 111.079 923.838C110.916 920.238 105.955 918.701 105.459 918.094C101.44 913.31 98.0684 908.486 95.4416 901.146C92.6988 892.715 90.5725 884.466 86.337 875.277C85.9718 874.5 80.6155 869.399 82.2696 865.66C82.3813 865.416 84.103 861.673 81.3688 859.928C81.1966 859.815 80.4163 862.037 79.4792 858.999C78.54 855.957 75.8738 851.504 75.9301 846.859C75.9381 846.47 76.0525 845.862 76.1602 845.167C76.4211 843.227 76.5481 840.395 73.9568 837.991C73.7174 837.827 66.6593 833.086 69.3887 829.711C69.8436 829.159 73.5631 828.445 70.2417 824.09C69.6047 823.251 69.2905 825.216 68.058 822.853C66.1678 819.227 65.7985 813.872 63.0368 809.433C62.5478 808.667 59.2078 805.589 60.5401 802.27C60.7491 801.753 62.1628 802.364 61.9982 800.807C61.2309 793.415 59.2218 785.797 59.3656 778.144C59.4228 775.43 61.5835 776.624 61.9061 773.815C62.2215 771.01 62.4667 765.441 61.4871 762.559C60.5034 759.655 57.2666 762.931 56.9774 758.47C56.6637 753.145 56.7977 747.791 57.2999 742.464C58.5408 729.413 61.034 715.972 64.2387 702.415C64.903 699.654 63.2244 701.687 64.176 697.589C67.4664 682.269 76.1516 657.446 83.7084 646.968C83.7991 646.838 83.8878 646.712 83.9743 646.591C89.4997 638.998 85.903 650.669 89.7072 644.117C91.5765 640.886 89.7298 635.729 89.9821 634.875C92.441 626.438 96.438 621.666 99.1791 614.335C99.7462 612.818 97.6906 613.631 98.19 612.344C99.8684 607.976 102.526 603.761 104.253 599.636C105.026 597.779 103.8 597.638 104.643 595.991C106.65 592.046 108.709 588.692 111.488 585.22C111.741 584.904 111.984 587.918 113.38 584.963C115.636 580.177 119.332 574.643 120.815 568.638C121.255 566.847 118.832 565.683 122.123 562.908C122.812 562.325 125.325 564.598 124.645 559.336C124.542 558.439 124.229 550.002 127.977 547.588C128.953 546.978 132.41 545.735 132.913 543.613C132.974 543.315 131.17 543.805 131.788 542.094C133.965 536.121 136.835 530.126 139.077 524.029C139.685 522.372 137.254 524.143 138.195 521.711C138.777 520.2 139.479 518.52 140.177 516.925C142.572 511.457 145.462 505.714 147.925 501.004C149.107 498.751 149.534 500.853 149.733 500.736C152.944 498.87 150.918 496.116 151.167 495.113C152.651 489.102 155.756 485.383 157.475 480.153C157.965 478.68 156.246 479.172 156.246 478.838C156.35 475.301 157.752 478.577 158.849 476.629C158.985 476.39 159.12 476.147 159.258 475.897C162.815 469.274 166.267 463.788 168.821 459.027C169.812 457.202 167.223 458.39 168.126 456.76C173.317 447.414 177.726 438.26 181.94 428.854C182.738 427.074 183.529 428.637 183.934 428.345C186.746 426.371 185.365 421.542 185.366 420.595C185.442 416.116 186.954 414.752 187.685 411.054C191.357 392.603 195.33 369.295 197.444 351.003C198.289 343.847 199.029 337.145 199.684 330.468C201.113 315.842 201.653 302.061 200.749 286.287C200.665 284.844 199.06 286.375 198.965 285.137C197.789 269.206 196.966 253.333 194.106 237.733C193.871 236.453 192.591 238.544 192.158 236.505C191.764 234.69 191.376 232.609 191.039 230.561C190.58 227.774 190.226 224.975 190.05 222.473C189.894 220.3 191.764 222.902 191.579 220.724C191.15 215.654 190.213 210.282 188.892 205.332C188.324 203.223 187.433 206.786 186.814 204.016C182.596 185.521 177.571 169.334 170.147 153.781C169.973 153.426 169.799 153.07 169.625 152.712C169.019 151.463 171.184 148.693 169.104 146.568C168.213 146.87 167.307 147.453 166.428 147.893C151.079 124.047 135.476 102.503 113.709 86.5235C112.798 85.8534 113.342 88.4036 111.591 87.1342C107.616 84.2715 103.513 81.682 99.3345 79.1905C92.1538 74.9134 85.1868 70.5765 78.3695 65.4559C77.2279 64.6085 79.3462 62.2728 75.565 60.6584C74.9486 60.4019 69.2955 57.6841 67.6387 57.5286C67.4067 57.5145 67.6588 59.2984 65.9551 58.3959C55.7501 52.9601 45.3944 47.0084 35.7055 41.237C34.1235 40.296 36.5482 39.7868 35.4316 39.1082C27.5478 34.3412 17.9866 31.2414 10.9657 27.5504C6.31741 25.2042 8.88545 23.2091 6.67014 20.0678C6.29728 19.5798 3.28353 19.186 3.1409 17.7218C2.67539 13.8923 4.93849 9.82885 4.28609 5.73487C4.07819 4.70528 -2.68908 5.97658 1.20648 3.66772C1.46983 3.41921 6.85157 2.93775 8.12701 2.50847C9.04298 2.14765 7.71111 0.37986 9.60273 0.0408904C11.4841 -0.280304 13.1231 1.38549 15.7852 1.34566C18.4319 1.33119 17.974 -0.700134 22.7703 0.700038ZM208.053 1013.95C206.499 1010.62 202.54 1014.3 206.151 1015.78C206.33 1015.84 208.137 1014.12 208.053 1013.95ZM475.758 1293.37C477.239 1288.76 473.068 1286.94 472.012 1290.14C470.892 1293.24 475.286 1294.72 475.758 1293.37ZM477.427 1336.54C480.093 1331.89 472.633 1330.08 473.342 1335.41C473.378 1335.72 477.271 1336.81 477.427 1336.54ZM20.1867 23.5229C20.167 23.4322 17.7698 22.4359 17.6737 22.4824C15.7952 23.594 20.5573 25.5654 20.1867 23.5229ZM466.671 1379.43C468.218 1378.35 468.739 1373.63 466.837 1375.02C465.309 1376.15 464.753 1380.78 466.671 1379.43ZM101.738 876.898C101.798 876.827 101.2 874.973 100.789 875.17C99.4598 875.787 100.77 878.183 101.738 876.898ZM436.661 1449.26C441.975 1439.37 450.629 1435.95 444.538 1446.69C443.43 1448.63 444.878 1441.49 443.103 1443.78C439.876 1447.95 441.851 1452.81 437.546 1456.57C436.773 1457.23 436.348 1449.82 436.662 1449.24C436.662 1449.25 436.662 1449.25 436.661 1449.26ZM210.886 1007.83C210.881 1007.73 208.929 1005.9 208.836 1005.91C206.609 1006.21 210.555 1009.92 210.886 1007.83ZM75.9798 767.959C76.0995 767.807 76.0254 761.685 75.9072 761.485C73.0017 758.29 73.1308 770.872 75.9798 767.959ZM359.299 1109.76C362.694 1109.94 365.72 1111.69 366.484 1114.79C364.107 1113.07 361.693 1111.46 359.299 1109.76Z" fill="#DEB959"/>
</svg>
